<?xml version="1.0" standalone="no"?>
<!DOCTYPE svg PUBLIC "-//W3C//DTD SVG 20010904//EN"
 "http://www.w3.org/TR/2001/REC-SVG-20010904/DTD/svg10.dtd">
<svg version="1.0" xmlns="http://www.w3.org/2000/svg"
 width="700.000000pt" height="700.000000pt" viewBox="0 0 700.000000 700.000000"
 preserveAspectRatio="xMidYMid meet">
<metadata>
Created by potrace 1.14, written by Peter Selinger 2001-2017
</metadata>
<g transform="translate(0.000000,700.000000) scale(0.100000,-0.100000)"
fill="#000000" stroke="none">
<path d="M1359 6977 c-38 -14 -72 -38 -114 -81 -85 -86 -100 -132 -100 -301 1
-126 13 -373 20 -385 1 -3 6 -36 10 -75 10 -100 52 -343 80 -460 222 -922 729
-1699 1485 -2275 52 -40 95 -75 95 -79 0 -4 -49 -45 -110 -91 -698 -530 -1179
-1232 -1423 -2080 -49 -168 -94 -379 -117 -545 -3 -22 -7 -49 -10 -60 -4 -23
-17 -146 -19 -190 -7 -129 78 -265 202 -323 48 -23 71 -27 142 -27 122 1 199
39 274 138 28 36 68 141 59 151 -4 3 126 6 288 6 2244 1 3031 0 3038 -4 5 -3
11 -19 14 -36 27 -132 153 -243 294 -256 195 -19 366 128 375 321 2 37 -7 137
-17 210 -3 17 -7 46 -9 65 -10 70 -17 115 -21 130 -2 8 -7 31 -10 50 -83 490
-314 1058 -608 1495 -259 386 -608 747 -969 1005 -27 18 -48 36 -48 40 0 3 37
33 83 67 45 34 92 69 104 80 11 10 41 34 65 53 74 60 129 110 261 240 185 180
221 242 220 375 -1 118 -57 223 -154 286 -93 61 -195 76 -300 46 -70 -21 -93
-38 -262 -204 -193 -188 -361 -320 -605 -475 l-74 -47 -56 36 c-319 203 -534
381 -764 634 -38 40 -68 76 -68 79 0 3 249 5 553 5 511 0 555 1 580 18 57 37
75 100 46 157 -34 68 2 65 -699 66 -349 1 -645 2 -656 3 -15 1 -34 21 -63 69
-23 37 -60 96 -82 131 -43 70 -159 299 -202 399 l-26 62 392 0 c216 0 653 0
972 0 563 0 582 1 613 20 77 47 75 155 -3 206 -23 15 -116 17 -1041 17 l-1016
0 -9 24 c-11 29 -69 254 -75 291 -2 15 -6 36 -9 48 -3 12 -7 39 -10 60 -3 21
-10 62 -15 89 -5 28 -11 73 -12 100 l-3 50 1653 0 c910 0 1655 -2 1657 -5 7
-12 -25 -224 -55 -363 -17 -76 -30 -159 -30 -186 0 -190 156 -345 345 -342 68
1 90 6 151 36 62 31 113 80 148 145 25 46 77 259 91 375 4 28 8 57 10 65 4 13
11 70 21 165 10 90 17 257 18 385 1 187 -13 229 -100 316 -80 80 -138 103
-249 100 -100 -3 -159 -29 -232 -103 -66 -67 -93 -136 -97 -250 -1 -46 -5 -86
-9 -89 -4 -5 -3292 -9 -3338 -5 -3 1 -6 38 -7 84 -1 93 -20 162 -62 222 -89
127 -254 177 -401 122z m2274 -4163 c123 -81 273 -190 342 -249 85 -73 203
-182 212 -196 10 -14 -58 -15 -688 -15 -385 0 -699 1 -699 3 0 2 12 15 28 29
15 14 47 44 72 67 56 53 144 127 232 195 65 50 357 252 365 252 2 0 64 -39
136 -86z m864 -796 c86 -115 154 -216 222 -331 63 -108 124 -228 118 -233 -3
-3 -1480 -6 -2544 -4 -73 0 -133 3 -133 8 0 4 31 65 70 136 78 142 210 345
291 449 l54 67 926 0 927 0 69 -92z m478 -878 c39 -102 72 -210 104 -343 29
-119 35 -144 47 -218 l6 -36 -1631 0 c-1380 0 -1631 2 -1631 14 0 7 9 57 21
109 11 53 22 104 24 113 8 42 80 283 100 336 13 33 25 67 28 76 5 14 146 15
1456 15 l1451 0 25 -66z"/>
<path d="M4445 5628 c-74 -42 -85 -135 -24 -194 52 -50 153 -39 192 20 39 59
18 142 -43 173 -31 16 -98 16 -125 1z"/>
</g>
</svg>
