<?xml version="1.0" standalone="no"?>
<!DOCTYPE svg PUBLIC "-//W3C//DTD SVG 20010904//EN"
 "http://www.w3.org/TR/2001/REC-SVG-20010904/DTD/svg10.dtd">
<svg version="1.0" xmlns="http://www.w3.org/2000/svg"
 width="500.000000pt" height="500.000000pt" viewBox="0 0 500.000000 500.000000"
 preserveAspectRatio="xMidYMid meet">
<metadata>
Created by potrace 1.14, written by Peter Selinger 2001-2017
</metadata>
<g transform="translate(0.000000,500.000000) scale(0.100000,-0.100000)"
fill="#000000" stroke="none">
<path d="M2722 4689 c-69 -35 -95 -82 -106 -194 -4 -38 -22 -127 -41 -196 -54
-194 -124 -310 -305 -504 -200 -214 -274 -315 -328 -447 -99 -240 -66 -491 86
-654 117 -125 259 -190 573 -265 197 -46 449 -106 569 -135 123 -30 190 -61
208 -95 19 -35 8 -111 -25 -171 -15 -29 -77 -106 -138 -173 -60 -67 -119 -133
-130 -146 -11 -13 -43 -51 -71 -84 -117 -138 -320 -417 -415 -571 -60 -98
-129 -241 -179 -369 -23 -60 -47 -120 -52 -132 -17 -34 -17 -104 -1 -143 40
-99 157 -147 249 -104 51 24 89 76 119 163 30 86 36 99 98 233 25 53 66 129
92 170 43 66 172 246 185 258 3 3 46 57 95 120 81 104 280 348 294 360 18 16
113 132 142 175 205 296 142 646 -142 787 -41 20 -96 44 -124 53 -42 14 -467
116 -545 131 -14 3 -52 12 -85 21 -33 8 -69 17 -80 19 -75 14 -234 68 -278 93
-105 62 -127 95 -127 193 1 102 62 223 177 345 50 53 142 152 197 213 63 69
145 187 195 280 49 94 124 297 136 375 4 22 8 51 11 65 2 14 7 63 10 111 6 73
4 91 -14 132 -42 94 -154 133 -250 86z"/>
<path d="M3470 4627 c-47 -15 -105 -75 -116 -123 -20 -78 24 -172 99 -211 46
-23 733 -24 787 0 132 58 148 232 27 313 l-42 28 -360 2 c-229 1 -373 -3 -395
-9z"/>
<path d="M3253 3957 c-49 -9 -98 -53 -123 -108 -35 -80 8 -182 95 -223 l50
-24 465 0 c498 1 513 2 568 52 88 78 68 228 -38 286 l-45 25 -466 0 c-256 0
-484 -3 -506 -8z"/>
<path d="M2772 3309 c-75 -7 -106 -27 -140 -90 -47 -88 -13 -207 71 -248 42
-20 56 -21 940 -21 875 0 898 0 936 20 48 24 78 60 91 112 28 101 -32 210
-124 223 -55 9 -1690 12 -1774 4z"/>
<path d="M2139 2227 c-48 -13 -105 -61 -123 -106 -29 -75 4 -171 76 -218 l41
-28 364 0 c345 -1 366 0 406 20 56 27 102 89 105 142 5 79 -53 165 -128 189
-34 11 -700 12 -741 1z"/>
<path d="M1380 1627 c-48 -12 -116 -86 -125 -134 -13 -81 30 -165 104 -202 34
-18 70 -19 540 -19 489 -1 506 0 548 20 24 11 56 37 71 56 23 30 27 45 27 102
0 79 -26 125 -90 162 l-40 22 -502 1 c-276 0 -516 -3 -533 -8z"/>
<path d="M483 1004 c-4 -1 -20 -5 -35 -8 -34 -8 -84 -50 -104 -87 -22 -44 -20
-120 5 -172 16 -32 34 -51 69 -69 l47 -26 801 1 c855 0 848 0 901 49 67 61 72
190 10 256 -55 59 -10 56 -884 57 -441 0 -806 0 -810 -1z"/>
</g>
</svg>
