<svg version="1.1" xmlns="http://www.w3.org/2000/svg" xmlns:xlink="http://www.w3.org/1999/xlink" width="464.026px" height="464.026px" viewBox="0,0,256,256"><g fill="none" fill-rule="nonzero" stroke="none" stroke-width="1" stroke-linecap="butt" stroke-linejoin="miter" stroke-miterlimit="10" stroke-dasharray="" stroke-dashoffset="0" font-family="none" font-weight="none" font-size="none" text-anchor="none" style="mix-blend-mode: normal"><g transform="scale(0.55169,0.55169)"><path d="M362.101,444.018h-260.175c-4.418,0 -8,-3.582 -8,-8c0,-4.418 3.582,-8 8,-8h260.175c4.418,0 8,3.582 8,8c0,4.418 -3.582,8 -8,8z" fill="#8cb8e5"></path><path d="M342.495,384.018h-220.964c-4.418,0 -8.006,-3.582 -8.006,-8c0,-4.418 3.576,-8 7.994,-8h220.976c4.418,0 8,3.582 8,8c0,4.418 -3.582,8 -8,8z" fill="#8cb8e5"></path><path d="M296.649,324.018h-129.273c-4.418,0 -8,-3.582 -8,-8c0,-4.418 3.582,-8 8,-8h129.273c4.418,0 8,3.582 8,8c0,4.418 -3.582,8 -8,8z" fill="#8cb8e5"></path><path d="M352.758,46.018h-241.49c-4.418,0 -8,-3.582 -8,-8c0,-4.418 3.582,-8 8,-8h241.48c4.418,0 8.005,3.582 8.005,8c0,4.418 -3.577,8 -7.995,8z" fill="#8cb8e5"></path><path d="M263.628,106.018h-140.02c-4.418,0 -8,-3.582 -8,-8c0,-4.418 3.582,-8 8,-8h140.02c4.418,0 8,3.582 8,8c0,4.418 -3.582,8 -8,8z" fill="#8cb8e5"></path><path d="M244.208,166.018h-88.08c-4.418,0 -8,-3.582 -8,-8c0,-4.418 3.582,-8 8,-8h88.08c4.418,0 8,3.582 8,8c0,4.418 -3.582,8 -8,8z" fill="#8cb8e5"></path><path d="M343.208,22.518c0,-12.414 10.06,-22.5 22.5,-22.5c12.43,0 22.5,10.07 22.5,22.5c0,21.569 -1.538,41.61 -7.3,65.69c-3.06,12.76 -16.28,20.27 -28.82,16.43c-11.62,-3.55 -18.34,-15.59 -15.41,-27.38c4.692,-18.842 6.53,-36.448 6.53,-54.74z" fill="#006fda"></path><path d="M387.268,439.358c-7.33,-81.014 -48.616,-155.138 -121.87,-201.94c-47.082,-30.081 -44.515,-28.389 -49.218,-31.643c-57.965,-40.073 -95.362,-106.681 -95.362,-183.257c0,-12.537 -10.183,-22.5 -22.5,-22.5c-12.43,0 -22.5,10.07 -22.5,22.5c0,93.548 43.928,172.857 113.03,221.44c0.1,-0.065 -4.068,-2.266 52.31,33.73c55.981,35.743 94.556,96.061 101.11,165.98c1.071,11.682 11.008,20.35 22.49,20.35c13.3,0 23.71,-11.42 22.51,-24.66z" fill="#e51919"></path><path d="M299.208,106.018h-0.9c-4.418,0 -8,-3.582 -8,-8c0,-4.418 3.582,-8 8,-8h0.9c4.418,0 8,3.582 8,8c0,4.418 -3.582,8 -8,8z" fill="#8cb8e5"></path><path d="M373.144,1.275c9.655,3.377 10.528,16.574 1.609,21.582c-6.776,3.804 -11.545,11.066 -11.545,19.662c0,14.216 -0.82,26.541 -3.561,40.77c-2.94,15.268 -27.393,11.772 -22.969,-6.03c5.253,-21.093 6.407,-36.991 6.53,-54.74c0.108,-15.631 15.427,-26.319 29.936,-21.244z" fill="#4c9fe8"></path><path d="M318.438,205.908c-50.247,54.968 -95.895,60.254 -140.79,110.11c-30.149,33.472 -49.381,75.421 -55.05,120c-0.989,7.852 -0.481,15.268 -8.13,22.16c-15.164,13.663 -39.574,1.744 -37.71,-18.82c7.4,-81.796 49.18,-155.505 121.87,-201.94c43.281,-27.66 61.914,-37.637 85.54,-63.08c8.23,-8.87 21.86,-9.99 31.4,-2.55c10.73,8.36 12.05,24.09 2.87,34.12z" fill="#006fda"></path><path d="M297.186,167.218c12.108,-2.095 19.675,12.848 10.775,21.321c-7.473,7.114 -16.811,19.088 -42.803,35.7c-45.404,29.018 -45.698,29.09 -52.31,33.72c-80.185,56.014 -106.983,142.596 -111.24,184.059c-1.641,15.982 -26.424,14.708 -24.85,-2.659c3.89,-43 22.82,-133.04 112.09,-195.4c38.862,-27.219 64.784,-36.734 95.32,-69.62c3.695,-3.983 8.277,-6.301 13.018,-7.121z" fill="#4c9fe8"></path><path d="M114.878,165.123c-24.651,-40.65 -38.964,-89.116 -39.06,-142.073c-0.021,-12.13 9.396,-22.49 21.515,-23.011c16.533,-0.71 24.788,18.526 14.127,30.573c-3.512,3.969 -5.642,9.189 -5.642,14.905c0,40.516 8.239,78.36 23.194,112.192c4.027,9.112 -8.969,15.932 -14.134,7.414z" fill="#ffaeb5"></path></g></g></svg>
