<?xml version="1.0" encoding="UTF-8"?>
<svg xmlns="http://www.w3.org/2000/svg" xmlns:xlink="http://www.w3.org/1999/xlink" width="30px" height="30px" viewBox="0 0 30 30" version="1.1">
<g id="surface1">
<path style=" stroke:none;fill-rule:nonzero;fill:rgb(54.901961%,72.156863%,89.803922%);fill-opacity:1;" d="M 23.410156 28.707031 L 6.589844 28.707031 C 6.304688 28.707031 6.074219 28.476562 6.074219 28.191406 C 6.074219 27.90625 6.304688 27.671875 6.589844 27.671875 L 23.410156 27.671875 C 23.695312 27.671875 23.929688 27.90625 23.929688 28.191406 C 23.929688 28.476562 23.695312 28.707031 23.410156 28.707031 Z M 23.410156 28.707031 "/>
<path style=" stroke:none;fill-rule:nonzero;fill:rgb(54.901961%,72.156863%,89.803922%);fill-opacity:1;" d="M 22.144531 24.828125 L 7.859375 24.828125 C 7.570312 24.828125 7.339844 24.597656 7.339844 24.3125 C 7.339844 24.027344 7.570312 23.792969 7.855469 23.792969 L 22.144531 23.792969 C 22.429688 23.792969 22.660156 24.027344 22.660156 24.3125 C 22.660156 24.597656 22.429688 24.828125 22.144531 24.828125 Z M 22.144531 24.828125 "/>
<path style=" stroke:none;fill-rule:nonzero;fill:rgb(54.901961%,72.156863%,89.803922%);fill-opacity:1;" d="M 19.179688 20.949219 L 10.820312 20.949219 C 10.535156 20.949219 10.304688 20.71875 10.304688 20.433594 C 10.304688 20.144531 10.535156 19.914062 10.820312 19.914062 L 19.179688 19.914062 C 19.464844 19.914062 19.695312 20.144531 19.695312 20.433594 C 19.695312 20.71875 19.464844 20.949219 19.179688 20.949219 Z M 19.179688 20.949219 "/>
<path style=" stroke:none;fill-rule:nonzero;fill:rgb(54.901961%,72.156863%,89.803922%);fill-opacity:1;" d="M 22.808594 2.976562 L 7.195312 2.976562 C 6.910156 2.976562 6.675781 2.742188 6.675781 2.457031 C 6.675781 2.171875 6.910156 1.941406 7.195312 1.941406 L 22.808594 1.941406 C 23.09375 1.941406 23.324219 2.171875 23.324219 2.457031 C 23.324219 2.742188 23.09375 2.976562 22.808594 2.976562 Z M 22.808594 2.976562 "/>
<path style=" stroke:none;fill-rule:nonzero;fill:rgb(54.901961%,72.156863%,89.803922%);fill-opacity:1;" d="M 17.042969 6.855469 L 7.992188 6.855469 C 7.707031 6.855469 7.476562 6.621094 7.476562 6.335938 C 7.476562 6.050781 7.707031 5.820312 7.992188 5.820312 L 17.042969 5.820312 C 17.332031 5.820312 17.5625 6.050781 17.5625 6.335938 C 17.5625 6.621094 17.332031 6.855469 17.042969 6.855469 Z M 17.042969 6.855469 "/>
<path style=" stroke:none;fill-rule:nonzero;fill:rgb(54.901961%,72.156863%,89.803922%);fill-opacity:1;" d="M 15.789062 10.734375 L 10.09375 10.734375 C 9.808594 10.734375 9.578125 10.503906 9.578125 10.214844 C 9.578125 9.929688 9.808594 9.699219 10.09375 9.699219 L 15.789062 9.699219 C 16.074219 9.699219 16.304688 9.929688 16.304688 10.214844 C 16.304688 10.503906 16.074219 10.734375 15.789062 10.734375 Z M 15.789062 10.734375 "/>
<path style=" stroke:none;fill-rule:nonzero;fill:rgb(0%,43.529412%,85.490196%);fill-opacity:1;" d="M 22.191406 1.457031 C 22.191406 0.652344 22.839844 0 23.644531 0 C 24.449219 0 25.097656 0.652344 25.097656 1.457031 C 25.097656 2.851562 25 4.144531 24.628906 5.703125 C 24.429688 6.527344 23.574219 7.011719 22.765625 6.765625 C 22.011719 6.535156 21.578125 5.757812 21.769531 4.996094 C 22.070312 3.777344 22.191406 2.636719 22.191406 1.457031 Z M 22.191406 1.457031 "/>
<path style=" stroke:none;fill-rule:nonzero;fill:rgb(89.803922%,9.803922%,9.803922%);fill-opacity:1;" d="M 25.039062 28.40625 C 24.566406 23.167969 21.894531 18.375 17.160156 15.351562 C 14.113281 13.40625 14.28125 13.515625 13.976562 13.304688 C 10.230469 10.714844 7.8125 6.40625 7.8125 1.457031 C 7.8125 0.644531 7.152344 0 6.355469 0 C 5.554688 0 4.902344 0.652344 4.902344 1.457031 C 4.902344 7.503906 7.742188 12.632812 12.210938 15.773438 C 12.214844 15.769531 11.945312 15.625 15.59375 17.953125 C 19.210938 20.265625 21.707031 24.164062 22.128906 28.683594 C 22.199219 29.441406 22.839844 30 23.582031 30 C 24.441406 30 25.117188 29.261719 25.039062 28.40625 Z M 25.039062 28.40625 "/>
<path style=" stroke:none;fill-rule:nonzero;fill:rgb(54.901961%,72.156863%,89.803922%);fill-opacity:1;" d="M 19.34375 6.855469 L 19.285156 6.855469 C 19 6.855469 18.769531 6.621094 18.769531 6.335938 C 18.769531 6.050781 19 5.820312 19.285156 5.820312 L 19.34375 5.820312 C 19.632812 5.820312 19.863281 6.050781 19.863281 6.335938 C 19.863281 6.621094 19.632812 6.855469 19.34375 6.855469 Z M 19.34375 6.855469 "/>
<path style=" stroke:none;fill-rule:nonzero;fill:rgb(29.803922%,62.352941%,90.980392%);fill-opacity:1;" d="M 24.125 0.0820312 C 24.75 0.300781 24.804688 1.152344 24.230469 1.476562 C 23.792969 1.722656 23.484375 2.191406 23.484375 2.75 C 23.484375 3.667969 23.429688 4.464844 23.253906 5.386719 C 23.0625 6.371094 21.480469 6.144531 21.769531 4.996094 C 22.109375 3.632812 22.183594 2.605469 22.191406 1.457031 C 22.195312 0.445312 23.1875 -0.246094 24.125 0.0820312 Z M 24.125 0.0820312 "/>
<path style=" stroke:none;fill-rule:nonzero;fill:rgb(0%,43.529412%,85.490196%);fill-opacity:1;" d="M 20.589844 13.3125 C 17.339844 16.867188 14.386719 17.207031 11.484375 20.433594 C 9.535156 22.597656 8.292969 25.308594 7.925781 28.191406 C 7.863281 28.699219 7.894531 29.179688 7.402344 29.625 C 6.421875 30.507812 4.84375 29.734375 4.960938 28.40625 C 5.441406 23.117188 8.140625 18.351562 12.84375 15.351562 C 15.640625 13.5625 16.84375 12.917969 18.371094 11.273438 C 18.90625 10.699219 19.785156 10.625 20.402344 11.105469 C 21.097656 11.648438 21.183594 12.664062 20.589844 13.3125 Z M 20.589844 13.3125 "/>
<path style=" stroke:none;fill-rule:nonzero;fill:rgb(29.803922%,62.352941%,90.980392%);fill-opacity:1;" d="M 19.214844 10.8125 C 19.996094 10.675781 20.488281 11.640625 19.910156 12.191406 C 19.429688 12.648438 18.824219 13.425781 17.144531 14.5 C 14.207031 16.375 14.1875 16.378906 13.761719 16.679688 C 8.578125 20.300781 6.84375 25.898438 6.570312 28.578125 C 6.464844 29.613281 4.859375 29.53125 4.960938 28.40625 C 5.214844 25.625 6.4375 19.804688 12.210938 15.773438 C 14.722656 14.011719 16.398438 13.398438 18.371094 11.273438 C 18.613281 11.015625 18.90625 10.863281 19.214844 10.8125 Z M 19.214844 10.8125 "/>
<path style=" stroke:none;fill-rule:nonzero;fill:rgb(100%,68.235294%,70.980392%);fill-opacity:1;" d="M 7.425781 10.675781 C 5.832031 8.046875 4.910156 4.914062 4.902344 1.492188 C 4.902344 0.707031 5.507812 0.0351562 6.292969 0.00390625 C 7.363281 -0.0429688 7.894531 1.199219 7.207031 1.980469 C 6.980469 2.234375 6.839844 2.574219 6.839844 2.941406 C 6.839844 5.5625 7.375 8.007812 8.339844 10.195312 C 8.601562 10.785156 7.761719 11.226562 7.425781 10.675781 Z M 7.425781 10.675781 "/>
</g>
</svg>
